<svg xmlns="http://www.w3.org/2000/svg" xmlns:xlink="http://www.w3.org/1999/xlink" width="500" height="300" viewBox="0 0 500 300">
  <defs>
    <filter id="Rectangle_1" x="155" y="41" width="196" height="196" filterUnits="userSpaceOnUse">
      <feOffset dy="3" input="SourceAlpha"/>
      <feGaussianBlur stdDeviation="5" result="blur"/>
      <feFlood flood-opacity="0.478"/>
      <feComposite operator="in" in2="blur"/>
      <feComposite in="SourceGraphic"/>
    </filter>
    <clipPath id="clip-SPRK_default_preset_name_custom_1">
      <rect width="500" height="300"/>
    </clipPath>
  </defs>
  <g id="SPRK_default_preset_name_custom_1" data-name="SPRK_default_preset_name_custom – 1" clip-path="url(#clip-SPRK_default_preset_name_custom_1)">
    <rect width="500" height="300" fill="#fff"/>
    <g id="Group_1" data-name="Group 1" transform="translate(9 2)">
      <g id="Group_2" data-name="Group 2" transform="translate(10)">
        <g transform="matrix(1, 0, 0, 1, -19, -2)" filter="url(#Rectangle_1)">
          <g id="Rectangle_1-2" data-name="Rectangle 1" transform="translate(173 56)" fill="#47e161" stroke="#000" stroke-linejoin="bevel" stroke-width="3">
            <path d="M0,0H131a29,29,0,0,1,29,29V131a29,29,0,0,1-29,29H0a0,0,0,0,1,0,0V0A0,0,0,0,1,0,0Z" stroke="none"/>
            <path d="M0-1.5H131A30.5,30.5,0,0,1,161.5,29V131A30.5,30.5,0,0,1,131,161.5H0A1.5,1.5,0,0,1-1.5,160V0A1.5,1.5,0,0,1,0-1.5Z" fill="none"/>
          </g>
        </g>
        <text id="B" transform="translate(180 195)" font-size="172" font-family="Raleway" font-weight="600"><tspan x="0" y="0">B</tspan></text>
        <g id="Rectangle_2" data-name="Rectangle 2" transform="translate(150 51)" fill="rgba(255,255,0,0.98)" stroke="#000" stroke-linejoin="round" stroke-width="2">
          <rect width="26" height="166" stroke="none"/>
          <rect x="1" y="1" width="24" height="164" fill="none"/>
        </g>
        <text id="ALL_NEW" data-name="ALL NEW" transform="translate(169 186) rotate(-90)" font-size="16" font-family="SegoeUI, Segoe UI" letter-spacing="0.4em"><tspan x="0" y="0">ALL NEW</tspan></text>
      </g>
      <text id="Brainly.com_API" data-name="Brainly.com API" transform="translate(132 255)" font-size="30" font-family="Raleway" font-weight="600"><tspan x="0" y="0">Brainly.com API</tspan></text>
    </g>
  </g>
</svg>
