<svg xmlns="http://www.w3.org/2000/svg" xmlns:xlink="http://www.w3.org/1999/xlink" width="500" height="300" viewBox="0 0 500 300"><defs><style>.a{clip-path:url(#d);}.b{fill:#47e161;stroke-linejoin:bevel;stroke-width:3px;}.b,.d{stroke:#000;}.c{font-size:172px;}.c,.f{font-family:Raleway;font-weight:600;}.d{fill:rgba(255,255,0,0.98);stroke-linejoin:round;stroke-width:2px;}.e{font-size:16px;font-family:SegoeUI, Segoe UI;letter-spacing:0.4em;}.f{font-size:30px;}.g{stroke:none;}.h{fill:none;}.i{fill:#fff;}.j{filter:url(#a);}</style><filter id="a" x="155" y="41" width="196" height="196" filterUnits="userSpaceOnUse"><feOffset dy="3" input="SourceAlpha"/><feGaussianBlur stdDeviation="5" result="b"/><feFlood flood-opacity="0.478"/><feComposite operator="in" in2="b"/><feComposite in="SourceGraphic"/></filter><clipPath id="d"><rect width="500" height="300"/></clipPath></defs><g id="c" class="a"><rect class="i" width="500" height="300"/><g transform="translate(9 2)"><g transform="translate(10)"><g class="j" transform="matrix(1, 0, 0, 1, -19, -2)"><g class="b" transform="translate(173 56)"><path class="g" d="M0,0H131a29,29,0,0,1,29,29V131a29,29,0,0,1-29,29H0a0,0,0,0,1,0,0V0A0,0,0,0,1,0,0Z"/><path class="h" d="M0-1.5H131A30.5,30.5,0,0,1,161.5,29V131A30.5,30.5,0,0,1,131,161.5H0A1.5,1.5,0,0,1-1.5,160V0A1.5,1.5,0,0,1,0-1.5Z"/></g></g><text class="c" transform="translate(180 195)"><tspan x="0" y="0">B</tspan></text><g class="d" transform="translate(150 51)"><rect class="g" width="26" height="166"/><rect class="h" x="1" y="1" width="24" height="164"/></g><text class="e" transform="translate(169 186) rotate(-90)"><tspan x="0" y="0">ALL NEW</tspan></text></g><text class="f" transform="translate(132 255)"><tspan x="0" y="0">Brainly.com API</tspan></text></g></g></svg>